# xmcd CD database file
#
# Track frame offsets:
#	150
#	9590
#	30483
#	44144
#	58027
#	66526
#	80628
#	95644
#	109717
#	120346
#	135070
#	148333
#	159431
#	185581
#	200031
#	221645
#	251489
#	270254
#	291509
#	312140
#	334909
#	347224
#
# Disc length: 4799 seconds
#
# Revision: 0
# Processed by: cddbd v1.5.2PL0 Copyright (c) Steve Scherf et al.
# Submitted via: CDex 1.51
#
DISCID=5512bd16
DTITLE=Stan Tracey - Three Classic Albums Plus - CD1
DYEAR=2011
DGENRE=Jazz
TTITLE0=Almost Like Being In Love
TTITLE1=Over the Rainbow
TTITLE2=The Surrey with the Fringe on Top
TTITLE3=I love Paris
TTITLE4=The Best Thing For You
TTITLE5=I can't give you anything but love
TTITLE6=This Nearly Was Mine
TTITLE7=They Can't Take That  Away From Me
TTITLE8=I've Got Five Dollars
TTITLE9=Mad About The Boy
TTITLE10=But Not For Me
TTITLE11=Love Is
TTITLE12=Li'l Ol' Pottsville
TTITLE13=Dream Of Many Colours
TTITLE14=Little Klunk
TTITLE15=Boo-Bah
TTITLE16=Baby Blue
TTITLE17=A Walk In The Park
TTITLE18=We'll Call You
TTITLE19=Free
TTITLE20=Euphony
TTITLE21=Monument
EXTD=YEAR: 2011
EXTT0=
EXTT1=
EXTT2=
EXTT3=
EXTT4=
EXTT5=
EXTT6=
EXTT7=
EXTT8=
EXTT9=
EXTT10=
EXTT11=
EXTT12=
EXTT13=
EXTT14=
EXTT15=
EXTT16=
EXTT17=
EXTT18=
EXTT19=
EXTT20=
EXTT21=
PLAYORDER=
